<?xml version="1.0" encoding="UTF-8"?>
<svg width="253.07" height="209.42" version="1.1" viewBox="0 0 253.07 209.42" xmlns="http://www.w3.org/2000/svg" xmlns:cc="http://creativecommons.org/ns#" xmlns:dc="http://purl.org/dc/elements/1.1/" xmlns:rdf="http://www.w3.org/1999/02/22-rdf-syntax-ns#" xmlns:xlink="http://www.w3.org/1999/xlink">
 <metadata>
  <rdf:RDF>
   <cc:Work rdf:about="">
    <dc:format>image/svg+xml</dc:format>
    <dc:type rdf:resource="http://purl.org/dc/dcmitype/StillImage"/>
    <dc:title/>
   </cc:Work>
  </rdf:RDF>
 </metadata>
 <image width="253.07" height="209.42" preserveAspectRatio="none" xlink:href="../../../Desktop/Eduraiser/eduraiser/illustration.png"/>
 <path d="m136.53 44.711v0.08889c-4.6871 0.38329-4.5333 5.9475-4.5333 9.3333 0 10.347-0.17778 20.667-0.17778 31.022h-61.067c-1.4086 0-2.9776-0.19236-4.3556 0.1336-1.942 0.45938-3.3723 2.2288-3.3778 4.222h-16c-0.58187 0-1.3094-0.11467-1.8663 0.07556-0.65138 0.22311-0.79724 0.81867-0.80027 1.4356-0.0071 1.4516-1.78e-4 2.904-8.9e-5 4.3556 0 0.68089 0.01644 1.3849 0.71147 1.7369 0.46009 0.23378 1.0994 0.12978 1.5996 0.12978h73.511c1.1476 0 4.4116 0.59111 4.6222-0.97778h0.0889v46.222c0 1.3022 0.15467 2.712-1.1556 3.4702-1.2302 0.712-3.5858 0.26311-4.9778 0.26311h-69.156c-1.3545 0-3.4395 0.41244-4.5251-0.56267-1.0757-0.96622-0.71938-2.7627-0.71938-4.0596h-0.08889c-1.1309 3.3431-1.599 6.3822-0.28347 9.7778 0.34258 0.88445 0.85671 2.3449 1.7057 2.8444 0.38693-1.4151 1.1524-2.776 1.9435-4 0.55298-0.856 1.3007-1.4836 0.98987-2.5778h14.4c0.0042 0.51022 0.26907 1.1102 0.16542 1.6-0.3336 1.576-1.5111 3.1058-2.0832 4.6222-0.96187 2.5502-1.6525 5.2373-2.1711 7.9111h0.08889c0.71804-1.8516 1.5052-3.68 2.2734-5.5111 0.65902-1.5707 1.1626-3.0151 2.7932-3.8249 1.7492-0.86933 4.2286-0.44177 6.1333-0.44177h60.622c0.0107 0.50577 0.19911 1.0071 0.16089 1.5111-0.152 2.0249-0.82223 4.0631-1.2436 6.0444-0.60356 2.8364-1.2044 5.6853-1.744 8.5333-0.272 1.432-0.656 2.8373-0.94222 4.2667-0.0951 0.47378-0.408 1.1902-0.288 1.6684 0.12889 0.51377 1.9796 0.83911 2.4569 0.90933 1.0658-2.7476 2.3004-5.4782 3.2427-8.2667 0.21867-0.64711 0.64711-2.7262 1.3831-2.904 1.0373-0.24978 1.8542 0.45867 2.0409 1.3929 0.0622 0.31289 0.19111 0.68267-0.0364 0.95734-0.53511 0.64888-2.0596 0.46488-2.808 0.46488l-0.0889 0.97778c1.1947 0 3.1022-0.31022 3.6444 1.0667h0.0889l2.1956-6.6667-0.0818-1.4907 0.81956-0.90933h0.0889l-0.0889 15.467 2.6667 0.17778c0.36267-2.8578 1.1076-5.6729 1.4658-8.5253 0.0738-0.58755 0.0924-2.6311 0.68089-2.888 1.0862-0.47289 2.4133 0.28534 2.7422 1.28 0.096 0.29156 0.32178 0.74578 0.11645 1.032-0.50578 0.70134-2.2142 0.47911-2.9609 0.47911v0.97778h3.9111c0.50311-2.7111 0.85955-5.6907 0.97778-8.4444l-4.1778 0.0889 0.35555-2.4c1.0693 0 3.4756-0.47112 3.9111 0.8h0.0889c0.24534-1.9413 0.61423-3.7102 0-5.6h8.5333c1.9884 0 3.9449-0.0551 5.2729-1.7778 1.0489-1.3609 0.86044-3.0098 0.86044-4.6222v-54.044c0-1.6329 0.19822-3.3577-0.91822-4.7111-1.8747-2.272-5.1751-1.6889-7.7929-1.6889h-19.911c0-8.1216 0.17778-16.238 0.17778-24.356v-5.6889c0-1.2236 8e-3 -2.512 0.90489-3.4587 1.16-1.2233 2.72-0.98578 4.2507-0.98578h58.756c1.7324 0 3.4018-0.17778 4.4489 1.5111 0.79377 1.2818 0.44 3.2672 0.44 4.7111 0 3.6997-0.0889 7.4052-0.0889 11.111 0 14.101-0.35556 28.207-0.35556 42.311 0 4.1804-0.0889 8.3502-0.0889 12.533 0 1.0667 5e-3 2.1333 0 3.2-2e-3 0.30933-0.19733 0.93244 3e-3 1.1911 0.16267 0.20978 0.56711 0.14222 0.79733 0.14222 0.79556 0 1.6996 0.12 2.4836-0.0133 0.48355-0.0818 0.36089-0.68622 0.36089-1.0533v-3.2889c0-4.6844 0.0889-9.3573 0.0889-14.044 0-14.843 0.35555-29.688 0.35555-44.533 0-3.8231 0.0889-7.6398 0.0889-11.467 0-1.9638 0.272-4.0345-0.82044-5.7778-1.6098-2.5682-4.2196-2.5778-6.9129-2.5778h-41.956c1.0489-0.84284 0.62222-2.8637 0.62222-4.0889 0-0.49156 0.0578-1.0248-0.0187-1.5111-0.0747-0.47262-0.408-0.81796-0.87022-0.9304-0.71289-0.1736-1.5796-0.04738-2.3111-0.04738h-95.378c-0.52782 0-1.1543-0.07653-1.581 0.30391-0.47022 0.4192-0.37458 1.0852-0.37458 1.6516 0 1.1983-0.59093 4.2964 0.96951 4.6422 0.88338 0.19573 1.8646-0.03031 2.7638-0.01964 1.8031 0.02142 3.6125 0.08853 5.4222 0.08853h68.889m-72.711-4.3099c1.3319-0.40489 1.9757 1.5659 0.62187 1.9478-1.2222 0.3448-1.8576-1.5722-0.62187-1.9478m3.3778-0.0071c1.32-0.36382 1.949 1.5793 0.62178 1.9549-1.2484 0.35333-1.8797-1.6083-0.62178-1.9549m3.3778 0c1.3181-0.36329 1.8958 1.6236 0.62178 1.9673-1.2535 0.33813-1.8796-1.6206-0.62178-1.9673m41.244-0.0036c1.0293-0.23769 2.3218-0.03502 3.3778-0.03502h38.133c0.84088 8.9e-5 2.176 0.64862 1.2951 1.6699-0.56978 0.65973-2.0249 0.37458-2.8062 0.37458h-36.8c-0.976 0-2.2578 0.22044-3.2-0.03858-0.97689-0.26862-1.0124-1.7369 0-1.9708m121.96 11.787 0.0889 0.08889-0.0889-0.08889m-0.17778 0.53333 0.0889 0.08889-0.0889-0.08889m-0.53333 0.35556 0.0889 0.08889-0.0889-0.08889m0.17778 0.08889 0.0889 0.08889-0.0889-0.08889m-0.53334 0.17778 0.0889 0.08889-0.0889-0.08889m-0.53333 0.17778 0.0889 0.08889-0.0889-0.08889m-2.2222 1.6-0.17778-0.35556c-0.0916 0.69129-1.4071 0.91973-1.9547 1.1408-2.1147 0.85458-4.1751 1.5605-6.4009 1.9703v0.44444l-3.1111 0.44444v0.08889l0.26667 0.17778-2.0444 0.44444 0.17777 0.26667c-1.1884 0-2.7973 0.51973-3.8222 1.1556l1.0667-4.1778-0.26667 0.44444h-0.08889v-0.26667l-2.1333 0.71111-0.44444 47.644-0.08889 14.756v4.7111l-0.0889 2.5778 1.8667 0.0889c0.11556-1.4569 0.51645-2.9733 0.97778-4.3556 0.17422-0.52356 0.34311-1.2613 0.89245-1.512 0.82133-0.37334 2.1493-0.23556 3.0187-0.112 0.30311 0.0435 0.94045 0.25333 1.1342-0.0924 0.192-0.34133-0.47467-0.98133-0.61156-1.3058-0.43289-1.0231-0.43378-2.1991-0.43378-3.2889 0.78134-0.0267 2.2889 0.0329 2.7529 0.81866 0.19022 0.32267 0.0916 0.864 0.0916 1.2258 0.80622-0.32267 0.21066-1.1484 0.82044-1.5369 0.44178-0.28089 0.77422 0.37778 0.72445 0.73689-0.0818 0.58933-0.48534 1.1058-0.60978 1.6889-0.11289 0.52978 0.0684 0.99467 0.11911 1.5147 0.032 0.33155-3e-3 0.84177 0.24355 1.1022 0.24089 0.25422 0.78045 0.33511 1.1022 0.45689 0.98311 0.37066 2.5742 0.79555 3.168 1.7342 0.45422 0.71911 0.63555 1.7476 0.81333 2.5698 0.37244 1.7218 0.84889 3.6498 0.624 5.4222-0.0498 0.39644-0.31733 0.688-0.40089 1.0667-0.19111 0.87022 0.13422 1.7333-0.27733 2.5778-0.56356 1.1556-2.1262 1.6089-2.6204 2.6747-0.41066 0.88622-0.44533 2.0684-0.72177 3.0142-0.18578 0.63556-0.36712 1.3804-0.71023 1.9502-0.15555 0.25866-0.45955 0.36711-0.584 0.64-0.37155 0.81511-0.55111 1.6258-1.0711 2.3876-1.1387 1.6693-2.7556 2.8622-4.1751 4.2667-0.75822 0.75111-1.6044 1.6507-1.7511 2.7556-0.15822 1.1991 0.53511 2.8258 0.80444 4 0.64534 2.8116 1.296 5.6249 1.9058 8.4444 0.22489 1.0418 1.3067 3.5067 0.28534 4.1778 0.45066 0.51377 1.4747 0.34311 1.5796 1.296 0.0658 0.60355-0.82222 1.2133-1.224 1.5298-1.344 1.0578-3.1582 2.2747-4.8889 2.5076 0.54311-1.592 2.3769-2.5671 2.0444-4.3556-0.68534-0.13955-0.79556-0.83644-1.0053-1.4222-0.50666-1.4187-1.0071-2.8373-1.4836-4.2667-0.96978-2.9084-1.8676-5.8249-2.6107-8.8-0.42756-1.7084-0.96978-3.6471-0.848-5.4222 0.104-1.5067 0.88622-2.7013 1.3253-4.0889-1.1991 0-2.2613 0.0169-3.2889 0.73067-2.2996 1.6-3.0196 5.1636-5.6889 6.32-1.4044 0.60889-3.2133 0.32711-4.7111 0.32711-1.5502 0-3.168-0.13511-4.7111 9e-3 -0.79022 0.0738-1.4951 0.35556-2.3111 0.34667-0.91022-0.0107-1.8516-0.32178-2.7556-0.25778-1.2036 0.0844-2.3538 1.1467-2.8036 2.2133-0.776 1.8427-0.30755 4.5164-0.30755 6.4889h-15.644c1.3253 3.9173 3.1618 7.7413 4.7627 11.556 0.57955 1.3822 1.7218 3.2907 0.36622 4.5804-0.73244 0.69778-1.7004 0.664-2.64 0.664h-115.56c-0.86418 0-1.7624 0.0693-2.4885-0.49155-0.81547-0.63023-0.98862-1.5858-0.70827-2.5307 0.16133-0.54311 0.63716-1.2124 0.23084-1.7493-0.24827-0.328-0.84844-0.19645-1.2118-0.24356-1.2296-0.16178-2.4976-0.0382-3.7333-0.15555-2.3383-0.22223-4.6881-0.328-7.0222-0.632-1.0897-0.14223-2.7537-0.69956-3.8222-0.46667-0.54756 0.11911-1.0563 0.68533-1.5111 0.99467-0.90996 0.61777-1.8974 1.16-2.9333 1.5369-0.42498 0.15378-1.3236 0.504-1.7578 0.26489-0.32702-0.17955-0.35618-0.64622-0.39929-0.97155-0.13671-1.0338 0.24107-2.1396 0.55707-3.1111-2.5279-0.34045-6.8682-1.92-6.9333-4.9778h-0.088919c-0.93227 4.0667-1.7258 7.8809-1.3182 12.089 0.19093 1.9716 0.66356 3.9031 1.2886 5.7778 4.1243 12.371 16.746 18.682 28.741 20.996 13.611 2.6249 27.739 0.34134 40.978-3.1396 11.78-3.0969 23.225-7.0427 34.844-10.653 8.7636-2.7236 17.623-5.5209 26.933-4.8836 7.7369 0.52977 15.292 2.2213 22.756 4.296 5.4587 1.5182 10.819 3.4133 16.356 4.6364 11.007 2.4311 22.872 2.9618 33.689-0.64444 3.7733-1.2578 7.4062-3.0222 10.578-5.4409 2.04-1.5564 3.9022-3.3271 5.4924-5.344 10.389-13.18 7.216-31.273 1.7449-45.778-1.1156-2.9582-2.3787-5.8836-3.7929-8.7111-1.6204-3.2409-3.2613-6.4622-5.0818-9.6-2.9858-5.144-6.1724-10.292-8.5973-15.733-2.6436-5.9316-5.2596-11.82-6.5653-18.222-1.5902-7.8052-0.57689-15.544 3.2276-22.578 1.272-2.3527 2.7591-4.5836 4.3156-6.7556 0.57422-0.80116 1.9333-2.0563 2.0569-3.0222l0.97778-1.0667-2.6667 1.0667m1.6-0.08889-0.0889 0.08889 0.0889-0.08889m-4 0.53333v0.08889l0.53333-0.08889h-0.53333m-0.38489 0.20738 0.0587 0.02969-0.0587-0.02969m-3.7333 1.0667 0.0587 0.02969-0.0587-0.02969m-1.6596 0.68151v0.08889h0.35556l-0.35556-0.08889m-2.0444 0.53333v0.08889l0.97777-0.17778-0.97777 0.08889m-0.56267 0.20738 0.0587 0.02969-0.0587-0.02969m-5.7778 0.11858-0.0302 0.0592 0.0302-0.0592m4.4738 0.47404-0.0889 0.17778h0.17778l-0.0889-0.17778m-1.5111 0.71111 0.0889 0.08889-0.0889-0.08889m-3.4667 1.5111-0.0889 0.08889 0.0889-0.08889m-0.17778 0.71111-0.0889 0.08889 0.0889-0.08889m-99.2 23.867c1.4107-0.09404 1.5636 2.1223 0.17778 2.2461-1.4667 0.13111-1.6613-2.1473-0.17778-2.2461m29.244 53.733c-4.112 1.9227-9.2018 1.4338-13.511 0.8l1.0667 8.8h-60.089c-1.6779 0-3.6521 0.16623-4.8-1.3333h55.111c1.3671 0 3.5262 0.41067 4.7111-0.37778 1.2187-0.81066 1.0667-2.2542 1.0667-3.5333v-42.756c0-2.6969 0.29778-5.5964-0.0773-8.2667-0.15022-1.0711-0.61245-2.4462-1.6116-3.0142-0.472-0.26844-1.0782-0.18578-1.6-0.18578h-57.6c1.2098-1.6425 3.551-1.3333 5.3333-1.3333h86.311c2.1858 0 4.7111 0.12764 5.472 2.6667 0.42578 1.4204 0.21689 3.0667 0.21689 4.5333v46.133c0 1.592 0.30578 3.5618-0.30934 5.0667-0.54488 1.3342-1.7804 2.1324-3.1573 2.3476-1.12 0.17511-2.3342 0.0524-3.4667 0.0524h-9.5111c-0.32444 0-0.91911 0.112-1.1947-0.0915-0.488-0.36089-0.56178-1.9138-0.70489-2.4862-0.58222-2.3262-1.1716-4.6738-1.656-7.0222m-92.178-46.895c1.1536-0.09333 1.2647 1.7573 0.08889 1.8027-1.1531 0.04444-1.2367-1.7093-0.08889-1.8027m3.2889 0c1.18-0.09511 1.2774 1.7564 0.08889 1.8027-1.1412 0.04355-1.2329-1.7102-0.08889-1.8027m3.289 0c1.1307-0.12 1.2989 1.6649 0.17769 1.8044-1.1629 0.14489-1.3252-1.6818-0.17769-1.8044m85.067 18.184c0.33423 0 0.91289 0.11022 1.1991-0.0915 0.52444-0.368 0.74488-1.8898 0.94933-2.4862 0.89778-2.6213 2.0267-5.3004 2.6516-8-0.32355 0-0.91022-0.112-1.1822 0.0916-0.52978 0.39733-0.81066 2.0347-1.0036 2.664-0.80445 2.6258-1.7644 5.2098-2.6142 7.8222m-7.5556-3.6444c-0.82489 0.12177-1.824 0.48711-2.3529 1.1564-1.1769 1.4907-0.65333 4.4631 0.592 5.7689 0.54133 0.568 2.384 1.5636 2.9973 0.61867 0.40623-0.62578-0.0693-1.3973-0.52889-1.8293-0.22488-0.21244-0.74488-0.56622-0.53333-0.93511 0.50845-0.88978 1.3573 0.12445 1.6036 0.64267 0.96533-0.49156-0.44889-1.2622-0.0782-1.9271 0.192-0.34489 1.0676-0.28178 1.4116-0.33334 0.65244-0.0969 1.4898-0.73955 2.0818-0.71466 0.45333 0.0187 0.94222 0.44711 1.3849 0.57511l-0.0533-1.2071-1.1911-0.68267-2.1333-1.5671-2.0444-0.36533v-0.0889l3.9111-1.8 1.4196-0.74578 0.0916-1.2764c-1.6382 0.472-3.272 1.5307-4.8 2.2889-0.59111 0.29334-1.528 0.51912-1.9911 0.99734-0.39289 0.40622-0.0773 1.0853 0.21333 1.4249m13.244-4.7111 0.0916 1.2764 1.064 0.56889 3.1111 1.3547-0.18044-1.1876-1.064-0.61245-3.0222-1.4m5.9556 2.8444v2.0444c1.3893-0.4 1.1698-1.5582 0-2.0444m-5.9556 3.5556v1.3333l2.6667-1.2222 1.0933-0.6 0.50667-1.2889-0.0889-0.0889-4.1778 1.8667m-104.27 9.0667v0.0889h0.71111l-0.71111-0.0889m-0.71111 0.17778v0.0889h0.71111l-0.71111-0.0889m-1.4222 0.53333v0.0889h0.71111l-0.71111-0.0889m-0.8 0.0889 0.53333 0.0889v-0.0889h-0.53333m0.68151 0.11822 0.0592 0.0302-0.0592-0.0302m1.1852 0.0596 0.08889 0.0889-0.08889-0.0889m1.2444 0v0.0889h0.53333l-0.53333-0.0889m-3.8222 0.17778 0.08889 0.0889-0.08889-0.0889m3.2889 0.0889v0.0889l0.35556-0.0889h-0.3557m0.62222 0.17772v0.0889c0.26604-5e-3 0.38631 4e-3 0.44444-0.26666l-0.44444 0.17776m-4.6222-0.0889 0.08889 0.0889-0.08889-0.0889m3.7926 0.0293 0.0592 0.0302-0.0592-0.0302m-0.59262 0.32622 0.8 0.0889v0.17778l-1.5111-0.0889 0.17778 0.17778-1.0667 0.0889v0.08892l0.53333-0.0889-1.7778 0.8v0.0889l0.44444 0.0889v0.0889l-0.88889-0.0889v0.0889h0.35556v0.0889h-0.88889c-0.29031 0.48711-0.98569 0.59289-1.5111 0.71111v-0.26666h-0.08889l1.7778 12.267h0.08889c0.7096-1.6471 2.1349-3.1618 3.4667-4.3298 0.51796-0.45422 1.5058-0.90666 1.8642-1.4818 0.32693-0.52356 0.09138-1.7591 0.09138-2.3662v-6.1333h-0.62222l0.08889-0.17778c-0.40507 3e-3 -1.1025-0.17955-1.3333 0.17778m-2.4889-0.17778 0.08889 0.0889-0.08889-0.0889m-1.4222 0.0889 0.08889 0.0889-0.08889-0.0889m1.0667 0 0.08889 0.0889-0.08889-0.0889m1.7482 0.11822 0.0592 0.0302-0.0592-0.0302m2.2518-0.0293v0.0889h-0.26667l0.26667-0.0889m-2.8444 0.17778v0.0889h0.26667l-0.26667-0.0889m-3.5556 0.26667v0.08881c0.312 0 0.6352 0.088 0.71111-0.26666l-0.71111 0.17778m6.4-0.17778v0.0889h-0.26667l0.26667-0.0889m-1.4222 0.0889-0.08889 0.0889 0.08889-0.0889m-0.17778 0.26666-0.26667-0.17777 0.26667 0.17777m0.97778-0.14844 0.0296 0.0302c-0.04382 0.0142-0.09831-0.0302-0.0296-0.0302m-5.9556 0.05954 0.08889 0.0889-0.08889-0.0889m5.3333 0.0889v0.0889l-0.88889 0.0889 0.88889-0.17778m-4.4444 0.26667 0.35556-0.0889-0.35556 0.0889m1.1556-0.17778 0.08889 0.35556c-0.41244 0.0782-1.107-0.0258-1.2444 0.44444l-0.88889 0.0889-0.08889 0.26667 0.26667 0.0889 0.71111-0.22223 2.0444-0.93333-0.44444-0.0889v0.0889h0.26667v0.0889l-0.44444 0.0889-0.26667-0.26667m-2.3111 0.0889 0.08889 0.0889-0.08889-0.0889m0.17778 0 0.26667 0.17778v-0.0889l-0.26667-0.0889m4.5333 0.0889v0.0889h-0.71111l0.71111-0.0889m-4.6222 0.0889 0.08889 0.0889-0.08889-0.0889m0.26667 0.0889-0.08889 0.17778 0.08889-0.17778m3.1111 0.17778v0.17777h-0.17778v-0.17777h0.17778m-3.3778 0.0889 0.08889 0.0889-0.08889-0.0889m0.17778 0 0.08889 0.0889-0.08889-0.0889m0.53333 1.5999-0.088888 0.08889 0.088888-0.08889m-0.08889 0.17778-0.08889 0.0889 0.08889-0.0889m0.26667 0.35556-0.08889 0.0889 0.08889-0.0889m150.67 29.956c0.73155-0.11644 1.1893-0.74488 1.6889-1.2444v-0.0889c-0.95556-1.0107 0.18666-1.1271 0.34222-2.1333 0.24978-1.608 0.0133-3.4373 0.0133-5.0667-2.9476 1.1422-2.0444 6.0987-2.0444 8.5333m-51.289-5.1556 0.44444 1.2444h-0.44444v-1.2444m-102.22 6.4-1.0722 1.5111-0.28533 2.5778-0.86471 2.7556c1.4638 0.33867 2.9167 1.488 4.4444 0.96889 3.2152-1.0942 0.18658-5.2151-1.0551-6.6578-0.36124-0.41955-0.71236-0.83555-1.1671-1.1556m110.67 1.7778c0.064-0.34045 0.0498-1.1947 0.39378-1.3689 0.51378-0.25956 2.8036 0.01 2.5582 0.90578-0.20444 0.744-2.3778 0.46311-2.952 0.46311m-10.222 3.2889 0.8-2.2222c0.51289 0.152 1.0213 1.448 0.65422 1.9182-0.31111 0.39822-1.0133 0.304-1.4542 0.304m-107.38 0.35555v0.0889l2.2222 0.53333-0.71111-1.1556-1.5111 0.53332m116.44 3.2c0.0222-0.50667 0.0871-2.1671 0.49777-2.4862 0.25067-0.19467 0.80356-0.0916 1.1022-0.0916 0.296 0 0.69066-0.0551 0.93244 0.15467 0.29511 0.256 0.90845 1.9529 0.61067 2.2578-0.48978 0.50044-2.472 0.16533-3.1431 0.16533m-9.3333-2.4889c0.16889 0.45067 0.69334 1.9476 0.30223 2.3342-0.29067 0.28623-0.99556 0.15467-1.3689 0.15467l0.88889-2.4889h0.17777m-106.84 0.53334c-0.0081 0.96622-0.52169 1.6364-0.88889 2.4889l4.7111-1.3333c-0.9472-0.67555-2.6876-0.92178-3.8222-1.1556m107.73 9.5112-3.3493 0.23111-0.31911 1.1022-0.50934 3.3778 0.26667 0.0889c-1.0204 0.82844-0.91733 1.176-0.62222 2.3111 1.6916 0.13422 3.552 0.75822 5.2444 0.35555-0.22755-1.1182-2.2169-1.1022-2.2898-2.0462-0.088-1.1431 0.86222-2.9049 1.2231-3.9982 0.13955-0.42311 0.448-0.98044 0.35555-1.4222m8.5333 0.17778c0.14133 1.1191 0.0693 2.2622 0.21511 3.3778 0.0533 0.40267-0.0507 0.91645 0.31822 1.1556v0.17778c-0.82933 0.48266-0.552 1.1724-0.0889 1.7778l-0.53333 0.17778v0.0889c1.4373 0.11378 2.9244-5e-3 4.3556-0.23022 0.27822-0.0436 1.3093-0.0818 1.3022-0.48978-0.0151-0.904-2.1511-0.66667-2.5084-1.336-0.23733-0.44533-0.064-1.1138-8.9e-4 -1.5884 0.13778-1.024 0.31733-2.0773 0.31822-3.1111h-3.3778m68.8 19.556c1.256-2.8329 1.5973-6.2996 3.8258-8.6222 0.97867-1.0204 2.7991-2.0036 4.0773-0.85956 0.99378 0.88978 0.66933 2.2862 5e-3 3.2596-1.4542 2.1333-3.8551 3.4498-5.4507 5.5111-0.61422 0.79289-1.68 2.7849-2.9022 2.408-0.59378-0.18311-1.0836-0.79733-1.4729-1.2524-0.86489-1.0098-1.6551-2.0791-2.4924-3.1111-0.896-1.104-1.8036-2.2382-2.8791-3.1742-1.7733-1.5422-3.7227-2.7938-5.1173-4.7369-1.0782-1.5022-1.6924-3.5431-0.28889-5.0631 1.9813-2.144 4.9716-0.38844 6.5609 1.2409 2.3111 2.3707 3.2427 5.7591 4.2978 8.8 0.63556 1.8302 1.4436 3.7004 1.8364 5.6z" fill="#3245a7"/>
</svg>

