<?xml version="1.0" encoding="UTF-8" standalone="no"?>
<svg
   xmlns:dc="http://purl.org/dc/elements/1.1/"
   xmlns:cc="http://creativecommons.org/ns#"
   xmlns:rdf="http://www.w3.org/1999/02/22-rdf-syntax-ns#"
   xmlns:svg="http://www.w3.org/2000/svg"
   xmlns="http://www.w3.org/2000/svg"
   xmlns:xlink="http://www.w3.org/1999/xlink"
   xmlns:sodipodi="http://sodipodi.sourceforge.net/DTD/sodipodi-0.dtd"
   xmlns:inkscape="http://www.inkscape.org/namespaces/inkscape"
   version="1.1"
   id="svg10"
   width="253.06667"
   height="209.42223"
   viewBox="0 0 253.06667 209.42223"
   sodipodi:docname="illustration.svg"
   inkscape:version="1.0.2-2 (e86c870879, 2021-01-15)">
  <metadata
     id="metadata16">
    <rdf:RDF>
      <cc:Work
         rdf:about="">
        <dc:format>image/svg+xml</dc:format>
        <dc:type
           rdf:resource="http://purl.org/dc/dcmitype/StillImage" />
        <dc:title></dc:title>
      </cc:Work>
    </rdf:RDF>
  </metadata>
  <defs
     id="defs14" />
  <sodipodi:namedview
     pagecolor="#ffffff"
     bordercolor="#666666"
     borderopacity="1"
     objecttolerance="10"
     gridtolerance="10"
     guidetolerance="10"
     inkscape:pageopacity="0"
     inkscape:pageshadow="2"
     inkscape:window-width="1366"
     inkscape:window-height="705"
     id="namedview12"
     showgrid="false"
     inkscape:zoom="2.5689728"
     inkscape:cx="126.53333"
     inkscape:cy="110.64705"
     inkscape:window-x="-8"
     inkscape:window-y="-8"
     inkscape:window-maximized="1"
     inkscape:current-layer="g18" />
  <g
     inkscape:groupmode="layer"
     inkscape:label="Image"
     id="g18">
    <image
       sodipodi:absref="C:\Users\rajpi\Desktop\Eduraiser\eduraiser\illustration.png"
       xlink:href="illustration.png"
       id="image20"
       preserveAspectRatio="none"
       height="209.42223"
       width="253.06667" />
    <path
       style="fill:#3245a7;stroke:none;stroke-width:0.0888889"
       d="m 136.53334,44.711113 v 0.08889 C 131.84622,45.183291 132,50.747469 132,54.133335 c 0,10.346845 -0.17778,20.667468 -0.17778,31.022224 H 78.933334 70.755556 c -1.408622,0 -2.9776,-0.192356 -4.355555,0.1336 -1.941956,0.459378 -3.372267,2.2288 -3.377778,4.221955 H 50.666667 47.022223 c -0.581867,0 -1.309422,-0.114666 -1.866311,0.07556 -0.651378,0.223111 -0.797245,0.818667 -0.800267,1.435556 -0.0071,1.451555 -1.78e-4,2.904 -8.9e-5,4.355555 0,0.680889 0.01644,1.384889 0.711467,1.736889 0.460089,0.233778 1.099378,0.129778 1.599644,0.129778 h 3.288889 12 43.288894 14.93333 c 1.14755,0 4.41155,0.591111 4.62222,-0.977778 h 0.0889 v 37.422216 8.8 c 0,1.30223 0.15467,2.712 -1.15556,3.47023 -1.23022,0.712 -3.58577,0.26311 -4.97777,0.26311 H 106.48889 61.333334 49.600001 c -1.354489,0 -3.439467,0.41244 -4.525067,-0.56267 -1.075733,-0.96622 -0.719378,-2.76267 -0.719378,-4.05955 h -0.08889 c -1.130933,3.34311 -1.599022,6.38222 -0.283466,9.77777 0.342577,0.88445 0.856711,2.34489 1.705688,2.84445 0.386934,-1.41511 1.152445,-2.776 1.943467,-4 0.552978,-0.856 1.300711,-1.48356 0.989867,-2.57778 h 14.4 c 0.0042,0.51022 0.269067,1.11022 0.165422,1.6 -0.3336,1.576 -1.511111,3.10578 -2.0832,4.62222 -0.961866,2.55022 -1.652533,5.23734 -2.171111,7.91111 h 0.08889 c 0.718044,-1.85155 1.505156,-3.68 2.273422,-5.51111 0.659022,-1.57066 1.162578,-3.01511 2.793245,-3.82489 1.749244,-0.86933 4.228622,-0.44177 6.133333,-0.44177 h 13.155556 47.466671 c 0.0107,0.50577 0.19911,1.00711 0.16089,1.51111 -0.152,2.02489 -0.82223,4.06311 -1.24356,6.04444 -0.60356,2.83645 -1.20444,5.68534 -1.744,8.53334 -0.272,1.432 -0.656,2.83733 -0.94222,4.26666 -0.0951,0.47378 -0.408,1.19022 -0.288,1.66845 0.12889,0.51377 1.97955,0.83911 2.45689,0.90933 1.06577,-2.74756 2.30044,-5.47822 3.24266,-8.26667 0.21867,-0.64711 0.64711,-2.72622 1.38311,-2.904 1.03734,-0.24978 1.85423,0.45867 2.04089,1.39289 0.0622,0.31289 0.19111,0.68267 -0.0364,0.95734 -0.53511,0.64888 -2.05956,0.46488 -2.808,0.46488 l -0.0889,0.97778 c 1.19467,0 3.10222,-0.31022 3.64444,1.06667 h 0.0889 l 2.19556,-6.66667 -0.0818,-1.49067 0.81956,-0.90933 h 0.0889 l -0.0889,15.46667 2.66666,0.17778 c 0.36267,-2.85778 1.10756,-5.67289 1.46578,-8.52534 0.0738,-0.58755 0.0924,-2.63111 0.68089,-2.888 1.08622,-0.47289 2.41333,0.28534 2.74222,1.28 0.096,0.29156 0.32178,0.74578 0.11645,1.032 -0.50578,0.70134 -2.21423,0.47911 -2.96089,0.47911 v 0.97778 h 3.91111 c 0.50311,-2.71111 0.85955,-5.69067 0.97778,-8.44444 l -4.17778,0.0889 0.35555,-2.4 c 1.06934,0 3.47556,-0.47112 3.91112,0.8 h 0.0889 c 0.24534,-1.94134 0.61423,-3.71023 0,-5.6 h 8.53334 c 1.98844,0 3.94489,-0.0551 5.27289,-1.77778 1.04889,-1.36089 0.86044,-3.00978 0.86044,-4.62222 v -8.8 -35.64445 -9.599997 c 0,-1.632889 0.19822,-3.357689 -0.91822,-4.711111 -1.87467,-2.272 -5.17511,-1.688889 -7.79289,-1.688889 h -19.91111 c 0,-8.121601 0.17778,-16.237512 0.17778,-24.355557 v -5.688889 c 0,-1.223644 0.008,-2.512 0.90489,-3.458667 1.16,-1.223289 2.72,-0.985777 4.25066,-0.985777 h 9.33334 39.02222 10.4 c 1.73244,0 3.40178,-0.177778 4.44889,1.511111 0.79377,1.281778 0.44,3.2672 0.44,4.711111 0,3.699733 -0.0889,7.405245 -0.0889,11.111112 0,14.100978 -0.35556,28.207112 -0.35556,42.311113 0,4.18044 -0.0889,8.35022 -0.0889,12.53333 0,1.06667 0.005,2.13333 0,3.2 -0.002,0.30933 -0.19733,0.93244 0.003,1.19111 0.16267,0.20978 0.56711,0.14222 0.79733,0.14222 0.79556,0 1.69956,0.12 2.48356,-0.0133 0.48355,-0.0818 0.36089,-0.68622 0.36089,-1.05333 v -3.28889 c 0,-4.68445 0.0889,-9.35734 0.0889,-14.04445 0,-14.842661 0.35555,-29.687729 0.35555,-44.533329 0,-3.823111 0.0889,-7.639823 0.0889,-11.466667 0,-1.963823 0.272,-4.034489 -0.82044,-5.777778 -1.60978,-2.568178 -4.21956,-2.577778 -6.91289,-2.577778 H 194.57778 158.4 c 1.04889,-0.842845 0.62222,-2.863734 0.62222,-4.088889 0,-0.491556 0.0578,-1.0248 -0.0187,-1.511111 -0.0747,-0.472623 -0.408,-0.817956 -0.87022,-0.9304 -0.71289,-0.1736 -1.57956,-0.04738 -2.31112,-0.04738 H 151.11111 136.17778 78.666668 64.08889 60.444445 c -0.527822,0 -1.154311,-0.07653 -1.580978,0.303911 -0.470222,0.4192 -0.374577,1.085156 -0.374577,1.651644 0,1.198312 -0.590934,4.296445 0.969511,4.642223 0.883378,0.195733 1.864622,-0.03031 2.763822,-0.01964 1.803111,0.02142 3.612533,0.08853 5.422222,0.08853 h 17.066667 20.533338 31.28889 m -72.710761,-4.30991 c 1.331911,-0.404889 1.975733,1.565867 0.621866,1.947822 -1.222222,0.3448 -1.8576,-1.572178 -0.621866,-1.947822 m 3.377777,-0.0071 c 1.32,-0.363822 1.948978,1.579289 0.621778,1.954933 -1.248355,0.353334 -1.879733,-1.608266 -0.621778,-1.954933 m 3.377778,0 c 1.318134,-0.363289 1.895823,1.623555 0.621778,1.967289 -1.253511,0.338133 -1.879644,-1.620622 -0.621778,-1.967289 m 41.244086,-0.0036 c 1.02934,-0.237689 2.32178,-0.03502 3.37778,-0.03502 h 7.11111 22.57778 8.44445 c 0.84088,8.9e-5 2.176,0.648622 1.29511,1.669867 -0.56978,0.659733 -2.02489,0.374578 -2.80623,0.374578 h -7.73333 -22.22222 -6.84445 c -0.976,0 -2.25777,0.220444 -3.2,-0.03858 -0.97689,-0.268622 -1.01244,-1.736889 0,-1.970845 m 121.95556,11.787201 0.0889,0.08889 -0.0889,-0.08889 M 233.6,52.71108 233.6889,52.79997 233.6,52.71108 m -0.53333,0.355556 0.0889,0.08889 -0.0889,-0.08889 m 0.17778,0.08889 0.0889,0.08889 -0.0889,-0.08889 m -0.53334,0.177777 0.0889,0.08889 -0.0889,-0.08889 m -0.53333,0.177778 0.0889,0.08889 -0.0889,-0.08889 m -2.22222,1.6 -0.17778,-0.355555 c -0.0916,0.691289 -1.40711,0.919733 -1.95467,1.1408 -2.11466,0.854577 -4.17511,1.560533 -6.40088,1.970311 v 0.444444 l -3.11112,0.444445 v 0.08889 l 0.26667,0.177777 -2.04444,0.444445 0.17777,0.266667 c -1.18844,0 -2.79733,0.519733 -3.82222,1.155555 l 1.06667,-4.177778 -0.26667,0.444445 H 213.6 V 56.88886 l -2.13333,0.711111 -0.44444,47.644449 L 210.93334,120 v 4.71112 l -0.0889,2.57777 1.86666,0.0889 c 0.11556,-1.45689 0.51645,-2.97333 0.97778,-4.35555 0.17422,-0.52356 0.34311,-1.26134 0.89245,-1.512 0.82133,-0.37334 2.14933,-0.23556 3.01866,-0.112 0.30311,0.0435 0.94045,0.25333 1.13423,-0.0924 0.192,-0.34133 -0.47467,-0.98133 -0.61156,-1.30578 -0.43289,-1.02311 -0.43378,-2.19911 -0.43378,-3.28888 0.78134,-0.0267 2.28889,0.0329 2.75289,0.81866 0.19022,0.32267 0.0916,0.864 0.0916,1.22578 0.80622,-0.32267 0.21066,-1.14844 0.82044,-1.53689 0.44178,-0.28089 0.77422,0.37778 0.72445,0.73689 -0.0818,0.58933 -0.48534,1.10578 -0.60978,1.68889 -0.11289,0.52978 0.0684,0.99467 0.11911,1.51467 0.032,0.33155 -0.003,0.84177 0.24355,1.10222 0.24089,0.25422 0.78045,0.33511 1.10223,0.45689 0.98311,0.37066 2.57422,0.79555 3.168,1.73422 0.45422,0.71911 0.63555,1.74755 0.81333,2.56978 0.37244,1.72177 0.84889,3.64977 0.624,5.42222 -0.0498,0.39644 -0.31733,0.688 -0.40089,1.06667 -0.19111,0.87022 0.13422,1.73333 -0.27733,2.57777 -0.56356,1.15556 -2.12622,1.60889 -2.62045,2.67467 -0.41066,0.88622 -0.44533,2.06845 -0.72177,3.01422 -0.18578,0.63556 -0.36712,1.38045 -0.71023,1.95023 -0.15555,0.25866 -0.45955,0.36711 -0.584,0.64 -0.37155,0.81511 -0.55111,1.62577 -1.07111,2.38755 -1.13866,1.66933 -2.75555,2.86222 -4.17511,4.26667 -0.75822,0.75111 -1.60444,1.65066 -1.75111,2.75555 -0.15822,1.19911 0.53511,2.82578 0.80444,4 0.64534,2.81156 1.296,5.62489 1.90578,8.44445 0.22489,1.04178 1.30667,3.50667 0.28534,4.17778 0.45066,0.51377 1.47466,0.34311 1.57955,1.296 0.0658,0.60355 -0.82222,1.21333 -1.224,1.52977 -1.344,1.05778 -3.15822,2.27467 -4.88889,2.50756 0.54311,-1.592 2.37689,-2.56711 2.04445,-4.35556 -0.68534,-0.13955 -0.79556,-0.83644 -1.00534,-1.42222 -0.50666,-1.41866 -1.00711,-2.83733 -1.48355,-4.26666 -0.96978,-2.90845 -1.86756,-5.82489 -2.61067,-8.80001 -0.42756,-1.70844 -0.96978,-3.64711 -0.848,-5.42222 0.104,-1.50666 0.88622,-2.70133 1.32533,-4.08889 -1.19911,0 -2.26133,0.0169 -3.28889,0.73067 -2.29955,1.6 -3.01955,5.16356 -5.68888,6.32 -1.40445,0.60889 -3.21334,0.32711 -4.71112,0.32711 -1.55022,0 -3.168,-0.13511 -4.71111,0.009 -0.79022,0.0738 -1.49511,0.35556 -2.31111,0.34667 -0.91022,-0.0107 -1.85155,-0.32178 -2.75555,-0.25778 -1.20356,0.0844 -2.35378,1.14667 -2.80356,2.21333 -0.776,1.84267 -0.30755,4.51645 -0.30755,6.48889 h -15.64445 c 1.32533,3.91734 3.16178,7.74134 4.76267,11.55556 0.57955,1.38222 1.72178,3.29066 0.36622,4.58044 -0.73244,0.69778 -1.70044,0.664 -2.64,0.664 h -4.8 -20.26667 -67.288887 -18.666667 -4.533333 c -0.864178,0 -1.7624,0.0693 -2.488533,-0.49155 -0.815467,-0.63023 -0.988623,-1.58578 -0.708267,-2.53067 0.161333,-0.54311 0.637155,-1.21244 0.230844,-1.74933 -0.248266,-0.328 -0.848444,-0.19645 -1.211822,-0.24356 -1.2296,-0.16178 -2.4976,-0.0382 -3.733333,-0.15555 -2.338311,-0.22223 -4.688089,-0.328 -7.022223,-0.632 -1.089688,-0.14223 -2.753688,-0.69956 -3.822222,-0.46667 -0.547555,0.11911 -1.056267,0.68533 -1.511111,0.99467 -0.909956,0.61777 -1.897422,1.16 -2.933333,1.53688 -0.424978,0.15378 -1.323645,0.504 -1.757778,0.26489 -0.327022,-0.17955 -0.356178,-0.64622 -0.399289,-0.97155 -0.136711,-1.03378 0.241067,-2.13956 0.557067,-3.11111 -2.527912,-0.34045 -6.868178,-1.92 -6.933334,-4.97778 H 24 c -0.932266,4.06667 -1.725777,7.88089 -1.318222,12.08889 0.190933,1.97155 0.663556,3.90311 1.288622,5.77778 4.124267,12.37066 16.746489,18.68177 28.740712,20.99555 13.6112,2.62489 27.738756,0.34134 40.977778,-3.13955 11.77956,-3.09689 23.22489,-7.04267 34.84445,-10.65334 8.76355,-2.72355 17.62311,-5.52089 26.93333,-4.88355 7.73689,0.52977 15.29244,2.22133 22.75555,4.296 5.45867,1.51822 10.81867,3.41333 16.35556,4.63644 11.00711,2.43111 22.872,2.96178 33.68889,-0.64444 3.77333,-1.25778 7.40622,-3.02223 10.57778,-5.44089 2.04,-1.55645 3.90222,-3.32711 5.49244,-5.344 10.38934,-13.18045 7.216,-31.27289 1.74489,-45.77778 -1.11555,-2.95822 -2.37867,-5.88356 -3.79289,-8.71111 -1.62044,-3.24089 -3.26133,-6.46223 -5.08178,-9.6 -2.98577,-5.144 -6.17244,-10.29156 -8.59733,-15.73334 -2.64355,-5.931553 -5.25955,-11.819553 -6.56533,-18.22222 -1.59022,-7.805245 -0.57689,-15.544001 3.22755,-22.577779 1.272,-2.352711 2.75911,-4.583644 4.31556,-6.755556 0.57422,-0.801155 1.93333,-2.056266 2.05689,-3.022222 l 0.97778,-1.066667 -2.66667,1.066667 m 1.6,-0.08889 -0.0889,0.08889 0.0889,-0.08889 m -4,0.533334 v 0.08889 l 0.53333,-0.08889 h -0.53333 m -0.38489,0.207377 0.0587,0.02969 -0.0587,-0.02969 m -3.73333,1.066667 0.0587,0.02969 -0.0587,-0.02969 m -1.65956,0.681511 v 0.08889 h 0.35556 l -0.35556,-0.08889 m -2.04444,0.533334 v 0.08889 l 0.97777,-0.177777 -0.97777,0.08889 m -0.56267,0.207377 0.0587,0.02969 -0.0587,-0.02969 m -5.77778,0.118578 -0.0302,0.0592 0.0302,-0.0592 m 4.47378,0.474045 -0.0889,0.177777 h 0.17778 l -0.0889,-0.177777 m -1.51111,0.711111 0.0889,0.08889 -0.0889,-0.08889 m -3.46667,1.511111 -0.0889,0.08889 0.0889,-0.08889 m -0.17778,0.711111 -0.0889,0.08889 0.0889,-0.08889 m -99.2,23.866845 c 1.41067,-0.09404 1.56356,2.122312 0.17778,2.246134 -1.46667,0.131111 -1.66133,-2.147289 -0.17778,-2.246134 m 29.24445,53.733153 c -4.112,1.92267 -9.20178,1.43378 -13.51111,0.8 l 1.06666,8.8 H 81.777779 70.222223 c -1.677867,0 -3.652089,0.16623 -4.8,-1.33333 h 43.644447 11.46666 c 1.36712,0 3.52623,0.41067 4.71112,-0.37778 1.21866,-0.81066 1.06666,-2.25422 1.06666,-3.53333 v -8.97778 -33.77778 c 0,-2.696885 0.29778,-5.596441 -0.0773,-8.266663 -0.15022,-1.071112 -0.61245,-2.446223 -1.61156,-3.014223 -0.472,-0.268444 -1.07822,-0.185778 -1.6,-0.185778 H 119.91114 108.2667 65.422253 c 1.209778,-1.642489 3.551022,-1.333333 5.333333,-1.333333 h 13.68889 57.066664 15.55556 c 2.18578,0 4.71111,0.127645 5.472,2.666667 0.42578,1.420444 0.21689,3.066667 0.21689,4.533333 v 8.355557 27.64444 10.13334 c 0,1.592 0.30578,3.56177 -0.30934,5.06666 -0.54488,1.33423 -1.78044,2.13245 -3.15733,2.34756 -1.12,0.17511 -2.33422,0.0524 -3.46667,0.0524 h -6.4 -3.11111 c -0.32444,0 -0.91911,0.112 -1.19466,-0.0915 -0.488,-0.36089 -0.56178,-1.91378 -0.70489,-2.48622 -0.58222,-2.32623 -1.17156,-4.67378 -1.656,-7.02223 M 50.577778,92.48267 c 1.1536,-0.09333 1.264712,1.757334 0.08889,1.802667 -1.153066,0.04444 -1.236711,-1.709334 -0.08889,-1.802667 m 3.288889,0 c 1.18,-0.09511 1.277423,1.756445 0.08889,1.802667 -1.141244,0.04355 -1.232889,-1.710222 -0.08889,-1.802667 m 3.288978,0 c 1.130667,-0.12 1.298934,1.664889 0.177689,1.804445 -1.162933,0.144889 -1.325244,-1.681778 -0.177689,-1.804445 m 85.066575,18.184 c 0.33423,0 0.91289,0.11022 1.19912,-0.0915 0.52444,-0.368 0.74488,-1.88978 0.94933,-2.48623 0.89778,-2.62133 2.02667,-5.30044 2.65155,-8 -0.32355,0 -0.91022,-0.111997 -1.18222,0.0916 -0.52978,0.39733 -0.81066,2.03466 -1.00355,2.664 -0.80445,2.62578 -1.76445,5.20978 -2.61423,7.82222 m -7.55555,-3.64444 c -0.82489,0.12177 -1.824,0.48711 -2.35289,1.15644 -1.17689,1.49067 -0.65333,4.46311 0.592,5.76889 0.54133,0.568 2.384,1.56356 2.99733,0.61867 0.40623,-0.62578 -0.0693,-1.39734 -0.52889,-1.82934 -0.22488,-0.21244 -0.74488,-0.56622 -0.53333,-0.93511 0.50845,-0.88978 1.35733,0.12445 1.60356,0.64267 0.96533,-0.49156 -0.44889,-1.26222 -0.0782,-1.92711 0.192,-0.34489 1.06756,-0.28178 1.41156,-0.33334 0.65244,-0.0969 1.48978,-0.73955 2.08178,-0.71466 0.45333,0.0187 0.94222,0.44711 1.38489,0.57511 l -0.0533,-1.20711 -1.19111,-0.68267 -2.13333,-1.56711 -2.04445,-0.36533 v -0.0889 l 3.91112,-1.8 1.41955,-0.74578 0.0916,-1.27645 c -1.63823,0.472 -3.272,1.53067 -4.8,2.28889 -0.59111,0.29334 -1.528,0.51912 -1.99111,0.99734 -0.39289,0.40622 -0.0773,1.08533 0.21333,1.42489 m 13.24444,-4.71112 0.0916,1.27645 1.064,0.56889 3.11111,1.35467 -0.18044,-1.18756 -1.064,-0.61245 -3.02223,-1.4 m 5.95556,2.84445 V 107.2 c 1.38933,-0.4 1.16978,-1.55822 0,-2.04444 m -5.95556,3.55556 v 1.33333 l 2.66667,-1.22222 1.09333,-0.6 0.50667,-1.28889 -0.0889,-0.0889 -4.17778,1.86667 m -104.266665,9.06666 v 0.0889 h 0.711111 l -0.711111,-0.0889 m -0.711111,0.17778 v 0.0889 h 0.711111 l -0.711111,-0.0889 m -1.422222,0.53333 v 0.0889 h 0.711111 l -0.711111,-0.0889 m -0.8,0.0889 0.533333,0.0889 v -0.0889 h -0.533333 m 0.681511,0.11822 0.0592,0.0302 -0.0592,-0.0302 m 1.185155,0.0596 0.08889,0.0889 -0.08889,-0.0889 m 1.244445,0 v 0.0889 h 0.533333 l -0.533333,-0.0889 m -3.822222,0.17778 0.08889,0.0889 -0.08889,-0.0889 m 3.288888,0.0889 v 0.0889 l 0.355556,-0.0889 H 43.288889 M 43.911112,119.2 v 0.0889 c 0.266044,-0.005 0.386311,0.004 0.444444,-0.26666 L 43.911112,119.2 m -4.622223,-0.0889 0.08889,0.0889 -0.08889,-0.0889 m 3.792623,0.0293 0.0592,0.0302 -0.0592,-0.0302 m -0.592623,0.32622 0.8,0.0889 v 0.17778 l -1.511111,-0.0889 0.177778,0.17778 -1.066667,0.0889 V 120 l 0.533334,-0.0889 -1.777778,0.8 V 120.8 l 0.444444,0.0889 v 0.0889 l -0.888888,-0.0889 v 0.0889 h 0.355555 v 0.0889 h -0.888889 c -0.290311,0.48711 -0.985689,0.59289 -1.511111,0.71111 v -0.26666 h -0.08889 l 1.777778,12.26666 h 0.08889 c 0.7096,-1.64711 2.134933,-3.16178 3.466667,-4.32978 0.517955,-0.45422 1.505777,-0.90666 1.864177,-1.48177 0.326934,-0.52356 0.09138,-1.75911 0.09138,-2.36623 v -6.13333 h -0.622222 l 0.08889,-0.17778 c -0.405067,0.003 -1.102489,-0.17955 -1.333334,0.17778 m -2.488888,-0.17778 0.08889,0.0889 -0.08889,-0.0889 m -1.422223,0.0889 0.08889,0.0889 -0.08889,-0.0889 m 1.066667,0 0.08889,0.0889 -0.08889,-0.0889 m 1.748178,0.11822 0.0592,0.0302 -0.0592,-0.0302 m 2.251822,-0.0293 v 0.0889 h -0.266667 l 0.266667,-0.0889 m -2.844444,0.17778 v 0.0889 h 0.266666 l -0.266666,-0.0889 m -3.555556,0.26667 V 120 c 0.312,0 0.6352,0.088 0.711111,-0.26666 l -0.711111,0.17778 m 6.4,-0.17778 v 0.0889 h -0.266667 l 0.266667,-0.0889 m -1.422222,0.0889 -0.08889,0.0889 0.08889,-0.0889 m -0.177778,0.26666 -0.266667,-0.17777 0.266667,0.17777 m 0.977778,-0.14844 0.0296,0.0302 c -0.04382,0.0142 -0.09831,-0.0302 -0.0296,-0.0302 M 37.066667,120 37.155557,120.0889 37.066667,120 m 5.333334,0.0889 v 0.0889 l -0.888889,0.0889 0.888889,-0.17778 m -4.444445,0.26667 0.355556,-0.0889 -0.355556,0.0889 m 1.155556,-0.17778 0.08889,0.35556 c -0.412445,0.0782 -1.107023,-0.0258 -1.244445,0.44444 l -0.888889,0.0889 -0.08889,0.26667 0.266667,0.0889 0.711111,-0.22223 2.044445,-0.93333 -0.444445,-0.0889 v 0.0889 h 0.266667 v 0.0889 l -0.444445,0.0889 -0.266666,-0.26667 m -2.311112,0.0889 0.08889,0.0889 -0.08889,-0.0889 m 0.177778,0 0.266667,0.17778 v -0.0889 l -0.266667,-0.0889 m 4.533334,0.0889 v 0.0889 h -0.711111 l 0.711111,-0.0889 m -4.622223,0.0889 0.08889,0.0889 -0.08889,-0.0889 m 0.266667,0.0889 -0.08889,0.17778 0.08889,-0.17778 m 3.111111,0.17778 v 0.17777 h -0.177778 v -0.17777 h 0.177778 m -3.377778,0.0889 0.08889,0.0889 -0.08889,-0.0889 m 0.177778,0 0.08889,0.0889 -0.08889,-0.0889 M 37.6,122.4 37.511112,122.48889 37.6,122.4 m -0.08889,0.17778 -0.08889,0.0889 0.08889,-0.0889 m 0.266666,0.35556 -0.08889,0.0889 0.08889,-0.0889 m 150.666674,29.95555 c 0.73155,-0.11644 1.18933,-0.74488 1.68889,-1.24444 v -0.0889 c -0.95556,-1.01067 0.18666,-1.12711 0.34222,-2.13333 0.24978,-1.608 0.0133,-3.43734 0.0133,-5.06667 -2.94755,1.14222 -2.04444,6.09867 -2.04444,8.53333 m -51.28889,-5.15555 0.44444,1.24444 h -0.44444 v -1.24444 m -102.222228,6.4 -1.072178,1.51111 -0.285333,2.57778 -0.864711,2.75555 c 1.463822,0.33867 2.916711,1.488 4.444444,0.96889 3.2152,-1.09422 0.186578,-5.21511 -1.055111,-6.65778 -0.361245,-0.41955 -0.712356,-0.83555 -1.167111,-1.15555 M 145.6,155.91112 c 0.064,-0.34045 0.0498,-1.19467 0.39378,-1.36889 0.51378,-0.25956 2.80356,0.01 2.55822,0.90578 -0.20444,0.744 -2.37778,0.46311 -2.952,0.46311 m -10.22222,3.28889 0.8,-2.22223 c 0.51289,0.152 1.02133,1.448 0.65422,1.91823 -0.31111,0.39822 -1.01333,0.304 -1.45422,0.304 M 28,159.55556 v 0.0889 l 2.222223,0.53333 -0.711112,-1.15555 L 28,159.55556 m 116.44445,3.2 c 0.0222,-0.50667 0.0871,-2.16711 0.49777,-2.48622 0.25067,-0.19467 0.80356,-0.0916 1.10223,-0.0916 0.296,0 0.69066,-0.0551 0.93244,0.15467 0.29511,0.256 0.90845,1.95289 0.61067,2.25778 -0.48978,0.50044 -2.472,0.16533 -3.14311,0.16533 m -9.33334,-2.48889 c 0.16889,0.45067 0.69334,1.94756 0.30223,2.33422 -0.29067,0.28623 -0.99556,0.15467 -1.36889,0.15467 l 0.88889,-2.48889 h 0.17777 m -106.844443,0.53334 c -0.0081,0.96622 -0.521689,1.63644 -0.888889,2.48888 l 4.711111,-1.33333 c -0.9472,-0.67555 -2.687555,-0.92178 -3.822222,-1.15555 M 136,170.31112 l -3.34933,0.23111 -0.31911,1.10222 -0.50934,3.37778 0.26667,0.0889 c -1.02044,0.82844 -0.91733,1.176 -0.62222,2.31111 1.69155,0.13422 3.552,0.75822 5.24444,0.35555 -0.22755,-1.11822 -2.21689,-1.10222 -2.28977,-2.04622 -0.088,-1.14311 0.86222,-2.90489 1.22311,-3.99822 0.13955,-0.42311 0.448,-0.98044 0.35555,-1.42222 m 8.53334,0.17778 c 0.14133,1.11911 0.0693,2.26222 0.21511,3.37777 0.0533,0.40267 -0.0507,0.91645 0.31822,1.15556 v 0.17778 c -0.82933,0.48266 -0.552,1.17244 -0.0889,1.77777 l -0.53333,0.17778 v 0.0889 c 1.43733,0.11378 2.92444,-0.005 4.35555,-0.23022 0.27822,-0.0436 1.30934,-0.0818 1.30222,-0.48978 -0.0151,-0.904 -2.15111,-0.66667 -2.50844,-1.336 -0.23733,-0.44533 -0.064,-1.11378 -8.9e-4,-1.58844 0.13778,-1.024 0.31733,-2.07734 0.31822,-3.11111 h -3.37777 m 68.8,19.55555 c 1.256,-2.83289 1.59733,-6.29955 3.82577,-8.62222 0.97867,-1.02045 2.79912,-2.00356 4.07734,-0.85956 0.99378,0.88978 0.66933,2.28623 0.005,3.25956 -1.45422,2.13333 -3.85511,3.44978 -5.45067,5.51111 -0.61422,0.79289 -1.68,2.78489 -2.90222,2.408 -0.59378,-0.18311 -1.08355,-0.79733 -1.47289,-1.25244 -0.86489,-1.00978 -1.65511,-2.07912 -2.49244,-3.11112 -0.896,-1.104 -1.80356,-2.23822 -2.87911,-3.17422 -1.77334,-1.54222 -3.72267,-2.79378 -5.11734,-4.73689 -1.07822,-1.50222 -1.69244,-3.54311 -0.28889,-5.06311 1.98134,-2.144 4.97156,-0.38844 6.56089,1.24089 2.31111,2.37067 3.24267,5.75911 4.29778,8.8 0.63556,1.83022 1.44356,3.70045 1.83645,5.6 z"
       id="path24" />
  </g>
</svg>
